:SAMPLES-PER-SECOND 30
:FULLY-SPECIFIED
:DEGREES
123
root  -10.8548 34.4251 -8.91755 -163.303 3.07805 -179.471
RightUpLeg  -24.0278 -14.4889 1.12663
RightLeg  13.7166 -6.46683 -1.14011
RightFoot  4.68686 0.0368343 -0.338497
RightToes  -25.8782 -0.117119 -0.22403
Spine  1.87105 0.797449 0.638924
Spine1  3.67448 1.87545 1.60642
HEad  -44.7239 2.00095 3.64587
LeftShoulder1  -1.94126e-019 -3.10601e-018 -2.51263e-017
LeftArm  -8.34358 11.5292 -81.6985
LeftForeArm  30.6611 -25.8641 -3.95194
LeftHand  -0.327377 -1.08093 6.01019
RightShoulder  -4.96962e-017 0 -2.36833e-017
RightArm  -19.5406 -12.6617 76.5
RightForeArm  47.2956 16.9828 1.36249
RightHand  -0.226285 -3.64417 -14.3359
LeftUpLeg  -27.4664 0.0997249 4.19361
LeftLeg  18.3207 13.8463 3.57441
LeftFoot  5.54084 -0.0672139 1.55048
LeftToes  -25.3374 2.14545e-006 -7.7278e-009
124
root  -10.9408 34.4114 -8.34267 -160.932 3.64529 -179.615
RightUpLeg  -27.646 -14.262 1.69827
RightLeg  13.9113 -6.02998 -1.08459
RightFoot  5.43057 0.044747 -0.382477
RightToes  -26.2271 -0.117119 -0.223313
Spine  2.33429 0.961086 0.601988
Spine1  4.59323 2.23514 1.48245
HEad  -41.8793 1.52198 3.30042
LeftShoulder1  -1.94126e-019 -3.10601e-018 -2.51263e-017
LeftArm  -8.54434 10.047 -81.7515
LeftForeArm  30.4193 -25.8076 -3.9189
LeftHand  -0.340224 -1.01151 6.30332
RightShoulder  -4.96962e-017 0 -2.36833e-017
RightArm  -20.6265 -11.3355 76.7872
RightForeArm  44.9998 17.403 1.53217
RightHand  -0.182116 -4.01304 -14.3596
LeftUpLeg  -30.3575 0.255736 4.00202
LeftLeg  17.6716 14.3224 3.52427
LeftFoot  6.60765 -0.0991497 1.87901
LeftToes  -25.7692 2.14545e-006 -7.7278e-009
125
root  -11.0209 34.383 -7.74766 -158.368 3.78752 -179.684
RightUpLeg  -31.3287 -14.4645 2.55436
RightLeg  13.8274 -5.51471 -0.983919
RightFoot  6.27195 0.0534855 -0.416463
RightToes  -26.7369 -0.117119 -0.222611
Spine  2.84171 0.979792 0.632301
Spine1  5.59984 2.30912 1.47195
HEad  -40.0151 1.34354 2.90164
LeftShoulder1  -1.94126e-019 -3.10601e-018 -2.51263e-017
LeftArm  -8.83029 8.56081 -81.8275
LeftForeArm  29.5356 -25.5303 -3.88559
LeftHand  -0.35826 -0.7974 6.84258
RightShoulder  -4.96962e-017 0 -2.36833e-017
RightArm  -20.5098 -9.92591 76.831
RightForeArm  42.3935 17.8058 1.71928
RightHand  -0.112313 -4.61477 -14.8426
LeftUpLeg  -33.5447 -0.00787954 4.06839
LeftLeg  17.0435 14.8305 3.47681
LeftFoot  7.6752 -0.138685 2.22882
LeftToes  -26.2781 2.14545e-006 -7.7278e-009
126
root  -11.105 34.3385 -7.14906 -155.63 3.92538 -179.803
RightUpLeg  -35.3163 -14.6352 3.45938
RightLeg  13.9494 -4.98345 -0.900396
RightFoot  6.99856 0.0600331 -0.423817
RightToes  -26.9579 -0.117119 -0.221932
Spine  3.36732 0.971472 0.624795
Spine1  6.63376 2.34305 1.36121
HEad  -38.7557 1.4337 2.62611
LeftShoulder1  -1.94126e-019 -3.10601e-018 -2.51263e-017
LeftArm  -9.48158 7.22757 -81.8661
LeftForeArm  28.6995 -25.1662 -3.83418
LeftHand  -0.372929 -0.66168 7.26668
RightShoulder  -4.96962e-017 0 -2.36833e-017
RightArm  -19.8756 -8.53668 76.8858
RightForeArm  41.7132 18.1891 1.81951
RightHand  -0.390674 -2.77506 -17.0154
LeftUpLeg  -36.8809 0.104114 3.97304
LeftLeg  16.3055 14.9491 3.30422
LeftFoot  8.78696 -0.18293 2.54215
LeftToes  -27.0131 2.14545e-006 -7.7278e-009
127
root  -11.1887 34.2729 -6.55584 -152.885 4.10498 -179.876
RightUpLeg  -39.4455 -14.5762 4.36871
RightLeg  14.372 -4.53647 -0.854515
RightFoot  7.72415 0.0665911 -0.430039
RightToes  -26.9524 -0.117119 -0.221282
Spine  3.95481 0.956038 0.623108
Spine1  7.78253 2.38187 1.2234
HEad  -37.9978 1.60768 2.48563
LeftShoulder1  -1.94126e-019 -3.10601e-018 -2.51263e-017
LeftArm  -10.04 5.86462 -81.8266
LeftForeArm  27.7411 -24.5662 -3.74634
LeftHand  -0.378355 -0.542065 7.50934
RightShoulder  -4.96962e-017 0 -2.36833e-017
RightArm  -19.793 -7.03195 77.0027
RightForeArm  41.9637 18.3403 1.83593
RightHand  -0.380958 -2.8794 -17.2635
LeftUpLeg  -40.2987 0.61094 3.69967
LeftLeg  15.6967 14.6987 3.08894
LeftFoot  9.83508 -0.224639 2.77202
LeftToes  -27.2161 2.14545e-006 -7.7278e-009
128
root  -11.2689 34.1961 -5.97735 -149.893 4.18245 -179.815
RightUpLeg  -43.742 -14.2806 5.40104
RightLeg  14.7507 -4.35829 -0.850978
RightFoot  8.43677 0.0754069 -0.466093
RightToes  -26.6454 -0.117119 -0.220669
Spine  4.44998 0.953947 0.659212
Spine1  8.75374 2.44811 1.15362
HEad  -37.041 1.69731 2.60256
LeftShoulder1  -1.94126e-019 -3.10601e-018 -2.51263e-017
LeftArm  -10.312 4.3962 -81.8263
LeftForeArm  27.3652 -23.4863 -3.54093
LeftHand  -0.394889 -0.429161 7.97615
RightShoulder  -4.96962e-017 0 -2.36833e-017
RightArm  -19.9431 -5.70056 77.0922
RightForeArm  41.6835 18.3322 1.84701
RightHand  -0.338539 -3.18418 -17.3803
LeftUpLeg  -44.137 1.21797 3.42872
LeftLeg  15.4031 14.3099 2.9335
LeftFoot  10.884 -0.267132 2.96502
LeftToes  -26.8606 2.14545e-006 -7.7278e-009
129
root  -11.3437 34.1147 -5.45881 -147.087 4.17371 -179.764
RightUpLeg  -47.6848 -13.9325 6.30069
RightLeg  15.0898 -4.24997 -0.856093
RightFoot  9.08771 0.0845334 -0.507223
RightToes  -26.4019 -0.117119 -0.220101
Spine  4.98753 0.972516 0.703406
Spine1  9.80698 2.5466 1.10447
HEad  -36.4416 1.5422 2.59303
LeftShoulder1  -1.94126e-019 -3.10601e-018 -2.51263e-017
LeftArm  -11.1883 2.81016 -81.9493
LeftForeArm  27.8074 -21.9334 -3.21291
LeftHand  -0.411897 -0.466077 8.2674
RightShoulder  -4.96962e-017 0 -2.36833e-017
RightArm  -20.2311 -4.6718 77.1225
RightForeArm  41.2806 18.5045 1.89669
RightHand  -0.284421 -3.55372 -17.4049
LeftUpLeg  -47.853 1.98875 2.9298
LeftLeg  15.3757 13.5366 2.77147
LeftFoot  11.6998 -0.290925 3.00047
LeftToes  -26.2783 2.14545e-006 -7.7278e-009
130
root  -11.4036 34.0245 -5.00218 -144.506 4.02852 -179.671
RightUpLeg  -51.3661 -13.8084 7.33947
RightLeg  15.5426 -3.98909 -0.836634
RightFoot  9.50468 0.0869242 -0.509047
RightToes  -25.9609 -0.117119 -0.219584
Spine  5.61135 0.964791 0.776967
Spine1  11.0229 2.56413 1.1282
HEad  -36.5268 1.40283 2.55747
LeftShoulder1  -1.94126e-019 -3.10601e-018 -2.51263e-017
LeftArm  -12.2097 1.3121 -82.0023
LeftForeArm  27.492 -20.5619 -2.95614
LeftHand  -0.4229 -0.379069 8.6066
RightShoulder  -4.96962e-017 0 -2.36833e-017
RightArm  -20.5333 -3.83459 77.1155
RightForeArm  40.8304 19.055 2.01836
RightHand  -0.270926 -3.63441 -17.2981
LeftUpLeg  -51.4773 2.37438 2.69858
LeftLeg  15.8229 13.0061 2.76967
LeftFoot  12.3099 -0.30861 3.02273
LeftToes  -26.0661 2.14545e-006 -7.7278e-009
131
root  -11.4655 33.9366 -4.59231 -142.003 3.82915 -179.548
RightUpLeg  -55.0636 -13.9355 8.67184
RightLeg  16.1969 -3.38581 -0.751017
RightFoot  9.89184 0.0836218 -0.451236
RightToes  -25.4493 -0.116524 -0.219127
Spine  6.24605 0.906102 0.907941
Spine1  12.2551 2.4373 1.30721
HEad  -36.2906 1.13836 2.19811
LeftShoulder1  -1.94126e-019 -3.10601e-018 -2.51263e-017
LeftArm  -12.8902 -0.212503 -82.0376
LeftForeArm  26.4739 -19.2189 -2.75465
LeftHand  -0.429903 -0.162023 9.07059
RightShoulder  -4.96962e-017 0 -2.36833e-017
RightArm  -20.2522 -2.90706 76.9168
RightForeArm  39.6971 19.6067 2.17243
RightHand  0.0275772 -5.72249 -15.1445
LeftUpLeg  -55.1779 2.3887 2.75132
LeftLeg  16.7502 12.875 2.95854
LeftFoot  12.7006 -0.325127 3.08237
LeftToes  -25.4338 2.14545e-006 -7.7278e-009
132
root  -11.5111 33.8434 -4.27047 -140.239 3.6106 -179.393
RightUpLeg  -57.8049 -13.6425 9.39365
RightLeg  17.0086 -3.40561 -0.806444
RightFoot  10.1188 0.0857321 -0.485373
RightToes  -25.1546 -0.115739 -0.218655
Spine  7.11375 0.832296 1.04939
Spine1  13.9276 2.26242 1.52553
HEad  -36.1399 0.859174 1.76158
LeftShoulder1  -1.94126e-019 -3.10601e-018 -2.51263e-017
LeftArm  -13.7031 -1.66016 -82.1076
LeftForeArm  26.0536 -18.1963 -2.57565
LeftHand  -0.427335 0.127603 9.48642
RightShoulder  -4.96962e-017 0 -2.36833e-017
RightArm  -20.1055 -1.88787 76.7806
RightForeArm  39.4432 20.4016 2.33267
RightHand  0.0426232 -5.84133 -15.1106
LeftUpLeg  -58.2081 2.50924 2.74766
LeftLeg  18.0992 12.5479 3.19421
LeftFoot  12.758 -0.320047 3.02373
LeftToes  -24.3415 2.14545e-006 -7.7278e-009
